<?xml version="1.0" encoding="utf-8"?>
<!-- Generator: Adobe Illustrator 15.0.0, SVG Export Plug-In . SVG Version: 6.00 Build 0)  -->
<!DOCTYPE svg PUBLIC "-//W3C//DTD SVG 1.1//EN" "http://www.w3.org/Graphics/SVG/1.1/DTD/svg11.dtd">
<svg version="1.1" id="Layer_1" xmlns="http://www.w3.org/2000/svg" xmlns:xlink="http://www.w3.org/1999/xlink" x="0px" y="0px"
	 width="566.93px" height="779.531px" viewBox="0 0 566.93 779.531" enable-background="new 0 0 566.93 779.531"
	 xml:space="preserve">
<circle fill="#9CBC5A" cx="283.465" cy="389.765" r="283.465"/>
<path fill="#78955F" d="M520.87,235.189L270.179,494.738l0.443,27.903h11.516l271.509-218.801
	C545.673,279.481,534.6,256.007,520.87,235.189z"/>
<path fill="#F2F1EF" d="M561.618,222.788l-50.05-49.606c-6.645-6.645-17.717-6.645-24.803,0L272.836,394.196l-92.57-91.24
	c-6.644-6.645-17.717-6.645-24.803,0l-44.292,43.849c-6.644,6.645-6.644,17.717,0,24.361L259.106,517.77
	c3.987,3.986,9.302,5.314,14.617,4.871c5.314,0.443,10.629-0.886,14.616-4.871l273.279-270.18
	C568.263,240.504,568.263,229.43,561.618,222.788z"/>
<path fill="#E6E5E3" d="M288.339,517.77l273.279-270.18c6.645-6.644,6.645-17.717,0-24.36l-7.972-7.529L273.279,491.195
	L118.259,340.161l-6.644,6.644c-6.644,6.645-6.644,17.717,0,24.361l147.935,146.605c3.987,3.986,9.301,5.314,14.616,4.871
	C279.037,523.085,284.352,521.757,288.339,517.77z"/>
</svg>
